<svg width="265" height="277" viewBox="0 0 265 277" fill="none" xmlns="http://www.w3.org/2000/svg">
<path d="M229.995 69.5713L175.34 12.9403V12.3767H27.9456V103.703L104.88 172.688L105.218 173.004L131.185 196.269L236.043 104.515V81.9705L230.107 69.5938L229.995 69.5713ZM144.022 64.1156L144.225 63.1913L145.484 57.6229H160.839L152.003 99.4197C151.846 100.164 151.689 100.84 151.576 101.449C151.36 102.504 151.225 103.574 151.172 104.65C151.132 105.411 151.363 106.162 151.824 106.769C152.029 106.997 152.278 107.181 152.556 107.309C152.835 107.437 153.136 107.506 153.442 107.513C155.533 107.513 158.254 106.138 161.559 103.41C165.159 100.264 168.101 96.4327 170.214 92.1379C172.445 87.7222 173.695 82.874 173.877 77.9274C174.06 72.9807 173.171 68.0532 171.271 63.4843C169.513 59.4028 166.907 55.7443 163.627 52.7533C160.019 49.583 155.814 47.1685 151.262 45.6519C145.891 43.8662 140.26 42.9974 134.602 43.0819C128.716 43.0294 122.857 43.8731 117.223 45.5843C112.223 47.1342 107.54 49.5699 103.397 52.7759C99.3502 55.9041 95.9517 59.7943 93.3919 64.2283C90.9753 68.3359 89.1582 72.7695 87.9961 77.3941C86.746 82.2081 86.1188 87.1634 86.1301 92.1379C86.0263 98.4687 87.3723 104.739 90.0645 110.466C92.6962 116.005 96.669 120.795 101.62 124.399C107.095 128.35 113.351 131.079 119.966 132.402C127.96 133.994 136.154 134.313 144.247 133.349C150.542 132.75 156.695 131.113 162.458 128.502C167.405 126.151 171.738 122.678 175.115 118.357H187.503C185.534 122.533 182.873 126.344 179.634 129.629C176.289 132.951 172.452 135.734 168.258 137.88C163.638 140.212 158.733 141.925 153.667 142.975C147.87 144.183 141.961 144.765 136.041 144.711C127.322 144.838 118.64 143.567 110.321 140.946C103.198 138.742 96.6228 135.046 91.0312 130.102C85.8491 125.445 81.7966 119.662 79.183 113.194C76.4589 106.294 75.1071 98.9269 75.2036 91.5067C75.1121 83.5231 76.5153 75.5931 79.3404 68.1284C81.96 61.0294 86.0637 54.5745 91.3761 49.1969C96.6886 43.8194 103.087 39.6436 110.141 36.9499C118.019 33.8675 126.416 32.3366 134.872 32.441C141.751 32.3655 148.594 33.4633 155.106 35.6874C160.942 37.7008 166.299 40.9014 170.844 45.0883C175.194 49.0954 178.623 54.0032 180.893 59.4715C183.226 65.2567 184.395 71.4473 184.333 77.6871C184.334 82.9094 183.39 88.0884 181.545 92.9721C179.716 97.9295 177.004 102.513 173.542 106.499C170.137 110.437 165.978 113.65 161.311 115.945C156.589 118.295 151.385 119.507 146.113 119.484C143.575 119.624 141.048 119.063 138.806 117.861C137.915 117.283 137.151 116.529 136.559 115.645C135.968 114.762 135.562 113.767 135.367 112.721C134.503 113.532 133.586 114.285 132.624 114.975C131.86 115.533 131.064 116.045 130.241 116.508C128.22 117.662 126.026 118.477 123.743 118.92C119.466 119.803 115.024 119.371 110.996 117.68C106.906 115.963 103.461 112.997 101.148 109.204C98.4917 104.742 97.1726 99.6082 97.3488 94.4149C97.3687 88.1937 98.702 82.0471 101.261 76.3796C103.745 70.6778 107.609 65.6876 112.502 61.8612C117.158 58.1498 122.944 56.1525 128.892 56.2026C131.822 56.0268 134.748 56.6256 137.375 57.9391C140.003 59.2525 142.241 61.2346 143.865 63.6872L144.135 64.1156H144.022ZM112.232 94.3022C111.986 98.1027 113.006 101.877 115.132 105.033C116.009 106.22 117.156 107.18 118.478 107.831C119.8 108.482 121.259 108.806 122.731 108.776C124.562 108.75 126.367 108.335 128.026 107.558C129.685 106.781 131.16 105.659 132.354 104.267C133.175 103.404 133.927 102.476 134.602 101.494C135.088 100.819 135.538 100.119 135.951 99.3972C137.073 97.4433 137.978 95.3719 138.649 93.2201C140.049 89.1082 140.808 84.8041 140.897 80.4601V80.3023C140.899 79.4288 140.854 78.5558 140.762 77.6871C140.654 76.6948 140.459 75.714 140.178 74.7564C139.703 73.1794 138.94 71.7042 137.93 70.4054C137.025 69.2232 135.854 68.2729 134.512 67.6325C133.099 66.9941 131.565 66.6711 130.016 66.6856C128.29 66.7023 126.585 67.0661 125.001 67.7554C123.418 68.4447 121.989 69.4454 120.798 70.6985C117.934 73.5645 115.792 77.0729 114.548 80.9335C113.07 85.1809 112.31 89.646 112.3 94.1444L112.232 94.3022ZM248.273 93.716C249.769 92.3567 251.718 91.6087 253.736 91.6194C255.374 91.639 256.976 92.1067 258.368 92.9721C259.437 93.616 260.394 94.4308 261.2 95.3843C263.497 98.0728 264.834 101.452 265 104.988V264.24C264.985 267.621 263.645 270.86 261.268 273.258C258.882 275.649 255.648 276.995 252.275 277H12.7251C9.35364 276.985 6.12339 275.641 3.73211 273.258C2.54617 272.077 1.60566 270.672 0.965038 269.124C0.324416 267.576 -0.00358532 265.916 2.95569e-05 264.24V104.988C0.168614 101.396 1.53873 97.9651 3.88948 95.249C4.71846 94.3624 5.67292 93.6028 6.72226 92.9946C8.07968 92.1683 9.63108 91.7172 11.2187 91.6871C12.8112 91.6612 14.3757 92.1083 15.7152 92.9721V6.1771C15.715 4.55433 16.3517 2.99668 17.4876 1.84081C18.6235 0.684933 20.1673 0.02369 21.7855 0L177.364 0C178.268 0.000796693 179.161 0.203524 179.978 0.593468C180.794 0.983412 181.514 1.55079 182.085 2.25442L246.497 68.9626C247.619 70.1043 248.249 71.6427 248.251 73.246V75.0269C248.251 75.2749 248.251 75.5229 248.251 75.7934C248.251 76.064 248.251 76.2894 248.251 76.5374V93.7386L248.273 93.716ZM127.048 209.074L100.923 185.674L12.3204 263.541V264.24C12.2817 264.334 12.2817 264.439 12.3204 264.533C12.4156 264.563 12.5175 264.563 12.6127 264.533H252.252C252.348 264.563 252.45 264.563 252.545 264.533C252.583 264.439 252.583 264.334 252.545 264.24V263.767L162.862 184.862L135.209 209.12C134.087 210.116 132.639 210.667 131.14 210.667C129.64 210.667 128.193 210.116 127.071 209.12L127.048 209.074ZM91.6832 177.513L12.3204 106.296V247.152L91.6832 177.4V177.513ZM252.657 247.535V106.228L172.193 176.724L252.657 247.422V247.535Z" fill="black"/>
</svg>
