<svg width="289" height="277" viewBox="0 0 289 277" fill="none" xmlns="http://www.w3.org/2000/svg">
<path fill-rule="evenodd" clip-rule="evenodd" d="M185.352 195.066C175.122 206.307 163.198 216.392 149.792 224.545C148.145 225.747 145.911 225.912 144.077 224.734C124.297 212.127 107.669 196.975 94.6165 180.527C76.601 157.882 65.2414 132.762 61.3608 108.585C57.4096 84.0543 61.1021 60.4663 73.2848 41.2848C78.0827 33.697 84.2211 26.7927 91.7001 20.8309C108.892 7.09279 128.531 -0.141489 148.075 -0.000102747C166.913 0.141284 185.493 7.18705 201.557 21.8677C207.201 27.0047 211.952 32.8959 215.833 39.2818C228.933 60.8904 231.755 88.4608 225.993 116.408C220.325 144.002 206.214 172.067 185.352 194.996V195.066ZM59.5498 175.649C64.2065 175.649 67.9931 179.443 67.9931 184.109C67.9931 188.775 64.2065 192.569 59.5498 192.569H43.6981L22.8133 260.128H265.575L242.903 192.569H229.803C225.146 192.569 221.36 188.775 221.36 184.109C221.36 179.443 225.146 175.649 229.803 175.649H254.968L288.977 277H0L31.3272 175.649H59.5498ZM144.359 43.6177C167.596 43.6177 186.411 62.4928 186.411 85.7273C186.411 109.009 167.572 127.861 144.359 127.861C121.122 127.861 102.331 109.009 102.331 85.7273C102.284 62.4692 121.122 43.6177 144.359 43.6177Z" fill="black"/>
</svg>
