<svg width="212" height="205" viewBox="0 0 212 205" fill="none" xmlns="http://www.w3.org/2000/svg">
<path d="M58.3518 84.3209C65.4892 96.7986 73.7032 108.807 84.3584 119.754C95.0619 130.753 108.315 140.776 125.549 149.273L125.566 149.281L125.57 149.273C126.826 149.895 128.021 149.88 129.144 149.471C130.773 148.879 132.469 147.564 134.118 145.973C135.376 144.756 136.953 142.747 138.658 140.569C145.293 132.096 153.497 121.622 165.078 126.833C165.323 126.942 165.554 127.069 165.772 127.212L204.371 148.76C204.509 148.837 204.642 148.919 204.768 149.006C209.885 152.42 211.974 157.678 211.997 163.565C212.021 169.636 209.704 176.432 206.348 182.177C201.923 189.751 195.329 194.756 187.783 198.148C180.588 201.38 172.604 203.1 164.894 204.197C152.836 205.916 141.468 204.824 129.891 201.36C118.591 197.978 107.159 192.331 94.6962 184.828L93.7887 184.282C88.0505 180.828 81.874 177.112 75.865 172.706C53.6695 156.426 31.0668 132.931 16.4107 107.145C4.07341 85.4393 -2.67753 62.0281 1.00245 39.7051C3.01928 27.4554 8.45557 16.3358 17.8272 8.97024C26.0429 2.51007 37.1294 -0.989112 51.3801 0.246586C53.0587 0.387425 54.4734 1.31797 55.2705 2.62576L55.2809 2.62073L79.9935 43.3132C83.6338 47.8704 84.0375 52.3923 82.069 56.8875C80.4421 60.6063 77.0795 64.0149 72.6215 67.2291C71.2654 68.3189 69.6747 69.4507 68.034 70.6176C62.5166 74.5427 56.2056 79.0311 58.3518 84.3209ZM77.0675 126.457C65.6738 114.751 56.9941 102.075 49.5064 88.972C49.3753 88.7658 49.258 88.5478 49.1579 88.3181C43.6819 75.8119 53.5056 68.8269 62.0853 62.7289C63.5431 61.6928 64.9544 60.6884 66.2276 59.6623L66.2311 59.6674C66.3053 59.607 66.3829 59.5483 66.464 59.4913C69.6437 57.2211 71.9348 55.0532 72.8095 53.058C73.3081 51.9195 73.1235 50.6671 72.0055 49.2603C71.814 49.0441 71.6381 48.806 71.4828 48.5511L47.9537 9.81192C37.8281 9.40785 29.9782 12.0268 24.1727 16.5923C16.8593 22.3416 12.5738 31.2782 10.933 41.2375C7.64643 61.1797 13.8936 82.4733 25.2389 102.436C39.1756 126.953 60.7361 149.343 81.9379 164.891C87.7675 169.167 93.6282 172.693 99.0732 175.969L99.9806 176.515C111.743 183.596 122.438 188.899 132.85 192.014C142.988 195.047 152.922 196.005 163.437 194.506C170.354 193.522 177.434 192.016 183.568 189.26C189.349 186.661 194.347 182.913 197.601 177.349C200.182 172.927 201.966 167.871 201.95 163.563C201.94 160.83 201.136 158.485 199.181 157.118L160.794 135.692C156.548 133.88 151.083 140.858 146.659 146.507C144.755 148.941 142.993 151.188 141.214 152.906C138.666 155.364 135.835 157.472 132.654 158.625C128.968 159.965 125.071 160.024 121 158.005L121.003 157.998C102.691 148.97 88.5456 138.252 77.0675 126.457Z" fill="black"/>
</svg>
