<svg width="30px" height="30px" viewBox="0 0 292 217" fill="none" xmlns="http://www.w3.org/2000/svg">
<path d="M225.952 50.8498L225.815 50.6675C225.107 49.6423 223.692 49.4145 222.687 50.1208L205.336 62.2409C204.309 62.9471 204.08 64.3596 204.788 65.362L204.925 65.5443C205.633 66.5695 207.048 66.7973 208.053 66.091L225.404 53.9709C226.408 53.2647 226.66 51.8522 225.952 50.8498ZM271.704 119.196L262.298 162.984C259.969 173.873 254.695 182.189 247.207 187.884C242.024 191.826 235.837 194.446 228.874 195.744L235.038 208.912C236.362 211.76 235.13 215.155 232.276 216.476C229.422 217.797 226.02 216.567 224.696 213.719L216.706 196.678H80.1345L72.1439 213.719C70.8197 216.567 67.418 217.797 64.5642 216.476C61.7104 215.155 60.4776 211.76 61.8017 208.912L67.6235 196.473C58.7196 195.699 51.4139 192.851 45.5237 187.976C38.6518 182.28 33.9487 174.01 31.1406 163.234L19.5656 119.196H10.5248C7.64816 119.196 5.02267 118.012 3.10493 116.121V116.098L3.0821 116.121C1.18718 114.207 0 111.587 0 108.694V99.1479C0 96.2546 1.18718 93.6347 3.0821 91.721C3.21908 91.5843 3.37889 91.4248 3.5387 91.3109C5.38796 89.6478 7.83081 88.6454 10.502 88.6454H11.8946C12.2827 84.499 13.8808 80.5805 16.3465 77.1632C18.8579 73.6547 22.3281 70.6703 26.2777 68.6199C30.2502 66.5467 34.7478 65.3848 39.291 65.5215C43.2863 65.6582 47.2588 66.7517 50.9345 69.0755C52.5326 66.7517 54.5188 64.6785 56.8019 62.9699C61.2766 59.6209 66.8701 57.6161 72.9201 57.6161C77.9428 57.6161 82.6458 58.983 86.6411 61.3524C89.7689 63.1977 92.4629 65.681 94.5632 68.5971C100.933 69.0983 106.686 71.8094 111.001 75.9557C114.54 79.373 117.097 83.7472 118.215 88.6226H271.749V32.1229C268.416 15.7881 258.965 11.3455 246.339 13.1453C252.024 23.0328 251.294 33.0797 243.234 43.3317C244.262 44.9948 244.17 46.8173 243.052 48.7538L240.54 51.6472C239.536 52.6724 238.28 52.7635 236.659 51.4649L198.076 12.5758C197.026 11.3227 197.231 10.2292 198.464 9.27236C201.204 5.92338 201.546 5.35382 206.409 6.17398C217.231 -0.84292 227.527 -2.09594 237.23 3.46291C261.59 -6.51568 282.32 6.01451 285.128 31.5305V89.3061C286.566 89.83 287.845 90.673 288.895 91.721C290.79 93.6119 291.977 96.2546 291.977 99.1479V108.694C291.977 111.587 290.79 114.207 288.895 116.121C287 118.012 284.352 119.196 281.475 119.196H271.704ZM204.103 32.1229L203.966 31.9406C203.258 30.9154 201.843 30.6876 200.838 31.3938L183.487 43.5139C182.46 44.2202 182.232 45.6327 182.939 46.6351L183.076 46.8173C183.784 47.8425 185.2 48.0704 186.204 47.3641L203.555 35.244C204.583 34.5378 204.811 33.1253 204.103 32.1229ZM194.126 22.0987L193.989 21.9164C193.282 20.8913 191.866 20.6634 190.862 21.3697L173.511 33.4898C172.483 34.196 172.255 35.6085 172.963 36.6109L173.1 36.7932C173.807 37.8184 175.223 38.0462 176.227 37.34L193.578 25.2199C194.583 24.5136 194.834 23.1011 194.126 22.0987ZM214.057 41.8053L213.92 41.623C213.213 40.5978 211.797 40.37 210.792 41.0762L193.441 53.1963C192.414 53.9026 192.186 55.3151 192.894 56.3175L193.031 56.4998C193.738 57.525 195.154 57.7528 196.158 57.0465L213.532 44.9264C214.514 44.2202 214.765 42.8305 214.057 41.8053ZM23.4924 88.6454H106.252C105.522 86.9595 104.449 85.4559 103.125 84.2028C100.408 81.5829 96.6408 79.9654 92.4629 79.9654C91.8236 79.9654 92.5085 79.9426 92.0748 79.9426L91.6866 79.9654C89.5406 80.0565 87.4174 78.9402 86.3672 76.9126C85.1343 74.566 83.2166 72.584 80.865 71.1942C78.582 69.8501 75.8652 69.0527 72.9658 69.0527C69.4499 69.0527 66.2308 70.1918 63.6966 72.0827C61.1625 73.9964 59.2676 76.662 58.4457 79.7148C58.1717 80.8767 57.5096 81.9702 56.5051 82.7904C54.0622 84.7724 50.455 84.4079 48.4688 81.9702C45.6607 78.5301 42.2818 77.0265 38.9714 76.9126C36.46 76.8214 33.903 77.5049 31.5972 78.7123C29.2685 79.9426 27.2138 81.7196 25.6841 83.8156C24.6111 85.3192 23.8349 86.9595 23.4924 88.6454ZM19.4058 100.082C18.4926 100.31 17.5794 100.287 16.7118 100.082H11.4608V107.737H280.539V100.082H19.4058ZM31.3689 119.196L42.1905 160.364C44.3822 168.747 47.8524 175.058 52.8294 179.159C57.6923 183.191 64.2446 185.242 72.7603 185.242H218.304C227.116 185.242 234.627 183.077 240.244 178.817C245.586 174.762 249.353 168.679 251.088 160.614L259.992 119.196H31.3689Z" fill="black"/>
</svg>
