<svg width="30px" height="30px" viewBox="0 0 223 200" fill="none" xmlns="http://www.w3.org/2000/svg">
<path d="M30.1573 2.30785e-05H192.838C197.921 2.30785e-05 202.547 2.09179 205.887 5.44824C209.232 8.80907 211.314 13.4608 211.314 18.5634V103.836C212.847 104.886 214.267 106.054 215.552 107.341L215.84 107.66C220.265 112.242 223 118.185 223 125.274V195.077C223 197.794 220.805 200 218.1 200H209.502C207.198 200 205.265 198.398 204.742 196.241C201.645 187.362 198.592 182.246 194.533 179.529C190.391 176.763 184.585 176.072 176.14 176.08L39.5781 176.282C33.5981 176.146 29.7522 177.84 27.0126 180.907C23.881 184.412 21.712 189.913 19.4951 196.617C18.8243 198.674 16.9123 199.978 14.8696 199.978L4.8999 200C2.19516 200 0 197.794 0 195.077V122.946C0 116.307 2.60893 110.794 6.79453 106.584L7.11684 106.291C8.49316 104.952 10.035 103.757 11.7031 102.711L11.6814 18.3796C11.6814 13.2814 13.7676 8.68654 17.1213 5.36072C20.5944 1.91867 25.2789 -0.00769089 30.1573 2.30785e-05ZM10.0786 143.667L9.79545 143.658V190.158H11.3896C13.637 183.809 16.1022 178.452 19.739 174.374C24.3993 169.153 30.5623 166.278 39.7654 166.484L176.14 166.278C186.488 166.269 193.853 167.284 199.925 171.345C205.386 174.999 209.337 180.807 212.908 190.158H213.205V143.658L212.917 143.667H10.0786ZM9.79545 133.834L10.0786 133.825H212.917L213.205 133.834V125.274C213.205 120.959 211.545 117.336 208.867 114.531L208.623 114.303C206.48 112.15 203.736 110.457 200.648 109.275C195.081 108.08 189.646 106.991 184.323 106.002C178.317 105.061 172.494 104.221 166.823 103.481C166.124 103.605 165.406 103.574 164.719 103.389L162.524 102.934C143.744 100.624 126.522 99.4508 109.47 99.4377C99.0129 99.4289 88.5815 99.8578 77.8496 100.724C58.9513 102.619 39.3081 106.015 17.6353 110.846C17.4306 110.89 17.2215 110.925 17.0212 110.942C15.8975 111.638 14.8609 112.426 13.9506 113.301L13.7241 113.546C11.3024 115.975 9.79545 119.148 9.79545 122.946V133.834ZM23.9943 98.068C33.7941 96.3132 43.1148 94.8384 52.1263 93.6306L52.1132 73.9295C52.1132 67.3216 54.8049 61.3045 59.1342 56.9591L59.4565 56.6659C63.7641 52.4867 69.6091 49.9092 76.0247 49.9092H146.975C153.556 49.9092 159.536 52.6136 163.861 56.9635C168.191 61.3133 170.887 67.326 170.887 73.9295V93.7794C175.665 94.5146 180.521 95.3329 185.469 96.2431C189.128 96.8164 192.847 97.4247 196.645 98.068C198.304 98.3524 199.933 98.7331 201.519 99.2101V18.5634C201.519 16.1784 200.534 13.9947 198.962 12.4106C197.39 10.8308 195.216 9.84183 192.838 9.84183H30.1573C27.7313 9.84183 25.5361 10.8002 23.9681 12.3581C22.4307 13.8809 21.4812 16.0077 21.4812 18.3796V98.6106C22.3087 98.4049 23.1493 98.2211 23.9943 98.068ZM114.052 89.0314C127.093 89.0926 139.832 89.8103 151.13 91.2019C154.419 91.5476 157.742 91.9458 161.087 92.3834V73.9295C161.087 70.0436 159.493 66.4946 156.932 63.9214C154.375 61.3527 150.847 59.751 146.975 59.751H76.0247C72.2572 59.751 68.8208 61.252 66.2815 63.6807L66.0594 63.9214C63.5027 66.4902 61.913 70.0392 61.913 73.9295V92.3747C77.9193 90.0772 96.2689 88.9438 114.052 89.0314Z" fill="black"/>
</svg>
